<svg height="24" viewBox="0 0 24 24" width="24" xmlns="http://www.w3.org/2000/svg"><path d="m21.4945038 7.054125c-1.0695 4.9725-4.479 7.60425-9.8895 7.60425h-1.96200004l-1.46325 9.342h3.18225004c.45975 0 .8505-.3345.9225-.78825l.0375-.198.732-4.6365.04725-.25575c.07125-.45375.46275-.78825.92175-.78825h.58125c3.75975 0 6.70425-1.52775 7.5645-5.94525.345-1.773.17925-3.2595-.67425-4.33425m-2.17725-5.244375c-1.1115-1.26675-3.12-1.80975-5.69025-1.80975h-7.45800004c-.52575 0-.97275.3825-1.05525.90075l-3.10575 19.6965c-.0615.3885.23925.74025.633.74025h4.60425l1.1565-7.335-.036.2295c.0825-.51825.5265-.90075 1.0515-.90075h2.18775004c4.299 0 7.66425-1.746 8.6475-6.7965.02925-.15.0765-.43725.0765-.43725.279-1.869-.00225-3.13725-1.01175-4.28775" fill="#003087" fill-rule="evenodd"/></svg>